<svg width="72" height="72" viewBox="0 0 72 72" fill="none" xmlns="http://www.w3.org/2000/svg">
<path d="M9.51 22.3199L36 37.6499L62.31 22.4099M36 64.8299V37.6199" stroke="#1D1D1D" stroke-width="4" stroke-linecap="round" stroke-linejoin="round"/>
<path d="M29.79 7.44L13.77 16.35C10.14 18.36 7.17 23.4 7.17 27.54V44.49C7.17 48.63 10.14 53.67 13.77 55.68L29.79 64.59C33.21 66.48 38.82 66.48 42.24 64.59L58.26 55.68C61.89 53.67 64.86 48.63 64.86 44.49V27.54C64.86 23.4 61.89 18.36 58.26 16.35L42.24 7.44C38.79 5.52 33.21 5.52 29.79 7.44Z" stroke="#1D1D1D" stroke-width="4" stroke-linecap="round" stroke-linejoin="round"/>
<path d="M51 39.72V28.74L22.53 12.3" stroke="#1D1D1D" stroke-width="4" stroke-linecap="round" stroke-linejoin="round"/>
</svg>
