<svg width="72" height="72" viewBox="0 0 72 72" fill="none" xmlns="http://www.w3.org/2000/svg">
<path d="M42.78 57.51L47.97 52.89C50.88 50.31 51 48.51 48.69 45.6L39.54 33.99C37.62 31.56 34.47 31.56 32.55 33.99L23.4 45.6C21.09 48.51 21.09 50.4 24.12 52.89L29.31 57.51M36.03 33.36V40.95M32.25 67.5H39.81C42.69 67.5 44.55 65.46 44.01 62.97L42.78 57.54H29.28L28.05 62.97C27.51 65.31 29.55 67.5 32.25 67.5Z" stroke="#1D1D1D" stroke-width="4" stroke-linecap="round" stroke-linejoin="round"/>
<path d="M31.56 10.68C20.13 12.03 11.25 21.72 11.25 33.51M60.75 33.51C60.75 21.75 51.93 12.09 40.56 10.68M37.56 15H34.56C32.91 15 31.56 13.65 31.56 12V9C31.56 7.35 32.91 6 34.56 6H37.56C39.21 6 40.56 7.35 40.56 9V12C40.56 13.65 39.21 15 37.56 15ZM9.81 42.51H12.81C14.46 42.51 15.81 41.16 15.81 39.51V36.51C15.81 34.86 14.46 33.51 12.81 33.51H9.81C8.16 33.51 6.81 34.86 6.81 36.51V39.51C6.81 41.16 8.16 42.51 9.81 42.51ZM62.19 42.51H59.19C57.54 42.51 56.19 41.16 56.19 39.51V36.51C56.19 34.86 57.54 33.51 59.19 33.51H62.19C63.84 33.51 65.19 34.86 65.19 36.51V39.51C65.19 41.16 63.84 42.51 62.19 42.51Z" stroke="#1D1D1D" stroke-width="4" stroke-linecap="round" stroke-linejoin="round"/>
</svg>
