<svg width="72" height="72" viewBox="0 0 72 72" fill="none" xmlns="http://www.w3.org/2000/svg">
<path d="M66 24.81V12.69C66 7.92 64.08 6 59.31 6H47.19C42.42 6 40.5 7.92 40.5 12.69V24.81C40.5 29.58 42.42 31.5 47.19 31.5H59.31C64.08 31.5 66 29.58 66 24.81ZM31.5 25.56V11.94C31.5 7.71 29.58 6 24.81 6H12.69C7.92 6 6 7.71 6 11.94V25.53C6 29.79 7.92 31.47 12.69 31.47H24.81C29.58 31.5 31.5 29.79 31.5 25.56ZM31.5 59.31V47.19C31.5 42.42 29.58 40.5 24.81 40.5H12.69C7.92 40.5 6 42.42 6 47.19V59.31C6 64.08 7.92 66 12.69 66H24.81C29.58 66 31.5 64.08 31.5 59.31Z" stroke="#1D1D1D" stroke-width="4" stroke-linecap="round" stroke-linejoin="round"/>
<path d="M45 46.5H63M45 58.5H63" stroke="#1D1D1D" stroke-width="4" stroke-linecap="round"/>
</svg>
