<svg width="72" height="72" viewBox="0 0 72 72" fill="none" xmlns="http://www.w3.org/2000/svg">
<path d="M32.91 6H26.91C11.91 6 5.91 12 5.91 27V45C5.91 60 11.91 66 26.91 66H44.91C59.91 66 65.91 60 65.91 45V39" stroke="#1D1D1D" stroke-width="4" stroke-linecap="round" stroke-linejoin="round"/>
<path d="M65.64 10.6801C61.95 19.8901 52.68 32.4301 44.94 38.6401L40.2 42.4201C39.6 42.8701 39 43.2301 38.31 43.5001C38.31 43.0501 38.28 42.6001 38.22 42.1201C37.95 40.1101 37.05 38.2201 35.43 36.6301C33.78 34.9801 31.8 34.0501 29.76 33.7801C29.28 33.7501 28.8 33.7201 28.32 33.7501C28.59 33.0001 28.98 32.3101 29.49 31.7401L33.27 27.0001C39.48 19.2601 52.05 9.93005 61.23 6.24005C62.64 5.70005 64.02 6.12005 64.89 6.99005C65.79 7.89005 66.21 9.27005 65.64 10.6801Z" stroke="#1D1D1D" stroke-width="4" stroke-linecap="round" stroke-linejoin="round"/>
<path d="M47.46 35.9399C47.46 29.6699 42.39 24.5699 36.09 24.5699M38.34 43.4699C38.34 46.1099 37.32 48.6299 35.43 50.5499C33.96 52.0199 31.98 53.0399 29.61 53.3399L23.7 53.9699C22.9408 54.0511 22.1731 53.9607 21.4535 53.7055C20.7339 53.4503 20.0808 53.0367 19.5423 52.4954C19.0039 51.9541 18.5938 51.2988 18.3425 50.5778C18.0911 49.8569 18.0048 49.0887 18.09 48.3299L18.72 42.4199C19.29 37.1699 23.67 33.8099 28.35 33.7199C28.83 33.6899 29.31 33.7199 29.79 33.7499C31.83 34.0199 33.81 34.9499 35.46 36.5999C37.08 38.2199 37.98 40.0799 38.25 42.0899C38.31 42.5699 38.34 43.0499 38.34 43.4699Z" stroke="#1D1D1D" stroke-width="4" stroke-linecap="round" stroke-linejoin="round"/>
</svg>
