<svg width="37" height="37" viewBox="0 0 37 37" fill="none" xmlns="http://www.w3.org/2000/svg">
<path d="M23.7616 6.9191C24.521 6.087 25.8845 6.8465 25.5768 7.93024L23.4762 15.3334C23.145 16.5007 23.5018 17.7548 24.3978 18.5728L30.0809 23.7615C30.913 24.521 30.1535 25.8845 29.0697 25.5768L21.6665 23.4762C20.4993 23.145 19.2452 23.5017 18.4272 24.3978L13.2385 30.0809C12.479 30.913 11.1155 30.1535 11.4232 29.0697L13.5238 21.6665C13.855 20.4993 13.4983 19.2452 12.6022 18.4271L6.91911 13.2384C6.08702 12.479 6.84652 11.1155 7.93025 11.4232L15.3335 13.5238C16.5007 13.855 17.7548 13.4983 18.5729 12.6022L23.7616 6.9191Z" fill="#F8AA27"/>
</svg>
