<svg width="36" height="36" viewBox="0 0 36 36" fill="none" xmlns="http://www.w3.org/2000/svg">
<path d="M16.6147 1.0965C16.9595 -0.3655 19.0405 -0.3655 19.3852 1.0965L21.7418 11.0828C22.1133 12.6574 23.3426 13.8866 24.9171 14.2582L34.9034 16.6147C36.3655 16.9595 36.3655 19.0405 34.9034 19.3852L24.9171 21.7418C23.3426 22.1133 22.1133 23.3426 21.7418 24.9171L19.3852 34.9034C19.0405 36.3655 16.9595 36.3655 16.6147 34.9034L14.2582 24.9171C13.8866 23.3426 12.6574 22.1133 11.0828 21.7418L1.0965 19.3852C-0.3655 19.0405 -0.3655 16.9595 1.0965 16.6147L11.0828 14.2582C12.6574 13.8866 13.8866 12.6574 14.2582 11.0828L16.6147 1.0965Z" fill="#1D1D1D"/>
</svg>
