<svg width="48" height="48" viewBox="0 0 48 48" fill="none" xmlns="http://www.w3.org/2000/svg">
<path d="M24.0001 24C26.6522 24 29.1958 22.9464 31.0711 21.0711C32.9465 19.1957 34.0001 16.6522 34.0001 14C34.0001 11.3478 32.9465 8.8043 31.0711 6.92893C29.1958 5.05357 26.6522 4 24.0001 4C21.3479 4 18.8044 5.05357 16.929 6.92893C15.0536 8.8043 14.0001 11.3478 14.0001 14C14.0001 16.6522 15.0536 19.1957 16.929 21.0711C18.8044 22.9464 21.3479 24 24.0001 24ZM24.0001 29C13.9801 29 5.82007 35.72 5.82007 44C5.82007 44.56 6.26007 45 6.82007 45H41.1801C41.7401 45 42.1801 44.56 42.1801 44C42.1801 35.72 34.0201 29 24.0001 29Z" fill="#1D1D1D"/>
</svg>
