<svg width="48" height="48" viewBox="0 0 48 48" fill="none" xmlns="http://www.w3.org/2000/svg">
<path d="M43.9981 25.72C43.9981 30.3 41.6381 34.36 37.9981 36.92L35.3181 42.82C34.6981 44.16 32.8981 44.42 31.9581 43.28L28.9981 39.72C25.2781 39.72 21.8581 38.46 19.2581 36.36L20.4581 34.94C29.6981 34.24 36.9981 26.92 36.9981 18C36.9981 16.48 36.7781 14.98 36.3781 13.54C40.9181 15.94 43.9981 20.5 43.9981 25.72Z" fill="#1D1D1D"/>
<path d="M32.6 12.14C30.26 7.34 25.04 4 19 4C10.72 4 4 10.26 4 18C4 22.58 6.36 26.64 10 29.2L12.68 35.1C13.3 36.44 15.1 36.68 16.04 35.56L17.14 34.24L19 32C27.28 32 34 25.74 34 18C34 15.9 33.5 13.92 32.6 12.14ZM24 19.5H14C13.18 19.5 12.5 18.82 12.5 18C12.5 17.18 13.18 16.5 14 16.5H24C24.82 16.5 25.5 17.18 25.5 18C25.5 18.82 24.82 19.5 24 19.5Z" fill="#1D1D1D"/>
</svg>
