<svg width="48" height="48" viewBox="0 0 48 48" fill="none" xmlns="http://www.w3.org/2000/svg">
<path d="M28.7 4H19.3C17.22 4 15.52 5.68 15.52 7.76V9.64C15.52 11.72 17.2 13.4 19.28 13.4H28.7C30.78 13.4 32.46 11.72 32.46 9.64V7.76C32.48 5.68 30.78 4 28.7 4Z" fill="#1D1D1D"/>
<path d="M34.4801 9.64002C34.4801 12.82 31.8801 15.42 28.7001 15.42H19.3001C16.1201 15.42 13.5201 12.82 13.5201 9.64002C13.5201 8.52002 12.3201 7.82002 11.3201 8.34002C9.88759 9.10286 8.68966 10.2411 7.85466 11.6328C7.01966 13.0244 6.57906 14.6171 6.58008 16.24V35.06C6.58008 39.98 10.6001 44 15.5201 44H32.4801C37.4001 44 41.4201 39.98 41.4201 35.06V16.24C41.4201 12.82 39.5001 9.84002 36.6801 8.34002C35.6801 7.82002 34.4801 8.52002 34.4801 9.64002ZM30.6801 25.46L22.6801 33.46C22.3801 33.76 22.0001 33.9 21.6201 33.9C21.2401 33.9 20.8601 33.76 20.5601 33.46L17.5601 30.46C17.2811 30.1777 17.1247 29.7969 17.1247 29.4C17.1247 29.0032 17.2811 28.6223 17.5601 28.34C18.1401 27.76 19.1001 27.76 19.6801 28.34L21.6201 30.28L28.5601 23.34C29.1401 22.76 30.1001 22.76 30.6801 23.34C31.2601 23.92 31.2601 24.88 30.6801 25.46Z" fill="#1D1D1D"/>
</svg>
