<svg width="48" height="48" viewBox="0 0 48 48" fill="none" xmlns="http://www.w3.org/2000/svg">
<path d="M34.5801 8.28003L34.4401 15.86C34.4201 16.9 35.0801 18.28 35.9201 18.9L40.8801 22.66C44.0601 25.06 43.5401 28 39.7401 29.2L33.2801 31.22C32.2001 31.56 31.0601 32.74 30.7801 33.84L29.2401 39.72C28.0201 44.36 24.9801 44.82 22.4601 40.74L18.9401 35.04C18.3001 34 16.7801 33.22 15.5801 33.28L8.90005 33.62C4.12005 33.86 2.76005 31.1 5.88005 27.46L9.84005 22.86C10.5801 22 10.9201 20.4 10.5801 19.32L8.54005 12.84C7.36005 9.04003 9.48005 6.94003 13.2601 8.18003L19.1601 10.12C20.1601 10.44 21.6601 10.22 22.5001 9.60003L28.6601 5.16003C32.0001 2.78003 34.6601 4.18003 34.5801 8.28003Z" fill="#1D1D1D"/>
<path d="M42.8799 40.94L36.8199 34.88C36.5376 34.601 36.1568 34.4446 35.7599 34.4446C35.363 34.4446 34.9822 34.601 34.6999 34.88C34.1199 35.46 34.1199 36.42 34.6999 37L40.7599 43.06C41.0599 43.36 41.4399 43.5 41.8199 43.5C42.1999 43.5 42.5799 43.36 42.8799 43.06C43.4599 42.48 43.4599 41.52 42.8799 40.94Z" fill="#1D1D1D"/>
</svg>
