<?xml version="1.0" standalone="no"?>
<!DOCTYPE svg PUBLIC "-//W3C//DTD SVG 20010904//EN"
 "http://www.w3.org/TR/2001/REC-SVG-20010904/DTD/svg10.dtd">
<svg version="1.0" xmlns="http://www.w3.org/2000/svg"
 width="467.000000pt" height="467.000000pt" viewBox="0 0 467.000000 467.000000"
 preserveAspectRatio="xMidYMid meet">
<metadata>
Created by potrace 1.14, written by Peter Selinger 2001-2017
</metadata>
<g transform="translate(0.000000,467.000000) scale(0.100000,-0.100000)"
fill="#000000" stroke="none">
<path d="M2310 2679 c0 -4 -12 -6 -26 -4 -18 2 -24 -1 -20 -12 3 -8 2 -11 -3
-8 -5 3 -16 -4 -24 -15 -7 -11 -16 -19 -18 -17 -2 1 -3 0 -2 -2 1 -2 -3 -13
-9 -25 -7 -11 -11 -29 -10 -38 3 -18 -32 -43 -47 -34 -14 9 -19 -29 -7 -50 6
-11 20 -19 31 -18 18 1 20 -5 19 -45 0 -26 -4 -52 -8 -59 -4 -7 -3 -12 1 -12
5 0 9 -27 9 -60 0 -55 -2 -60 -20 -58 -17 3 -20 -3 -21 -32 l0 -35 122 -1 c67
0 120 4 117 8 -3 4 1 8 8 8 10 0 10 2 -1 9 -9 6 -10 11 -2 15 18 12 3 25 -27
24 -57 -1 -84 24 -53 50 9 8 10 11 4 7 -10 -5 -13 16 -13 90 0 82 2 96 15 91
8 -3 15 -2 15 2 0 5 16 6 35 4 51 -6 63 1 57 38 -2 17 -7 29 -10 26 -3 -3 -11
-1 -19 5 -8 7 -13 8 -13 1 0 -5 -15 -8 -32 -6 -18 1 -37 3 -41 3 -10 1 -3 68
7 79 4 3 17 -6 29 -21 27 -34 85 -53 94 -32 3 8 8 13 12 11 4 -3 12 8 18 25 7
18 8 29 2 29 -6 0 -7 5 -4 10 3 6 1 10 -5 10 -7 0 -10 6 -7 14 3 8 -1 17 -9
20 -9 4 -12 2 -8 -5 3 -6 -4 -4 -18 5 -23 15 -118 19 -118 5z"/>
<path d="M3653 2672 c-37 -17 -39 -25 -31 -100 1 -7 7 -11 15 -8 7 3 13 0 13
-8 0 -15 30 -17 48 -3 6 5 12 6 12 3 0 -4 6 -1 14 6 8 7 12 16 9 21 -2 4 0 7
5 7 15 0 9 43 -8 60 -35 36 -44 38 -77 22z"/>
<path d="M300 2657 c-25 -12 -30 -21 -35 -65 -3 -26 18 -52 42 -52 9 0 13 -3
9 -7 -11 -11 -80 -10 -88 1 -4 6 -13 4 -22 -3 -13 -11 -16 -11 -16 0 0 11 -2
11 -10 -1 -7 -11 -10 -11 -10 -2 0 9 -5 10 -17 4 -10 -5 -28 -8 -40 -7 -12 1
-20 -2 -17 -7 4 -5 -3 -12 -15 -15 -12 -3 -21 -12 -21 -20 0 -8 -4 -11 -10 -8
-5 3 -10 3 -11 -2 -7 -54 -6 -90 4 -102 10 -12 9 -13 -3 -7 -11 6 -11 4 1 -6
16 -13 19 -19 19 -39 0 -5 5 -7 10 -4 5 3 10 4 10 0 0 -3 -11 -10 -25 -15 -18
-7 -23 -14 -18 -26 4 -10 2 -15 -4 -11 -6 4 -10 -8 -10 -28 0 -19 4 -32 9 -29
4 3 5 -2 2 -10 -3 -9 -1 -16 5 -16 6 0 11 -7 11 -15 0 -8 -4 -15 -9 -15 -11 0
-21 -25 -26 -63 -3 -16 0 -25 5 -22 6 4 10 1 10 -6 0 -12 37 -48 52 -50 18 -3
23 -5 33 -10 19 -11 155 -8 148 4 -4 6 0 8 9 5 8 -4 35 6 60 20 44 26 48 30
48 53 0 5 3 8 8 6 6 -4 6 71 0 108 -2 11 -38 48 -38 39 0 -4 -8 0 -17 7 -14
12 -16 12 -9 -1 5 -9 2 -8 -7 2 -11 14 -16 15 -26 5 -8 -8 -14 -8 -19 -1 -4 5
-34 10 -67 11 -106 1 -109 2 -97 16 12 14 50 15 70 3 7 -4 12 -3 12 1 0 5 12
8 28 7 15 -1 33 4 41 10 12 9 13 8 6 -4 -7 -12 -6 -13 7 -3 8 7 18 10 21 6 4
-3 7 -1 7 6 0 7 5 9 10 6 6 -3 10 -1 10 5 0 6 4 9 8 6 5 -3 15 6 22 19 7 14
17 25 22 25 5 0 6 4 3 10 -3 5 -1 19 5 30 8 15 8 20 -2 20 -10 0 -10 2 0 9 11
7 11 9 -2 14 -9 4 -13 13 -10 22 4 9 1 15 -7 15 -8 0 -4 8 9 20 12 12 22 27
22 35 0 8 5 15 10 15 7 0 7 6 1 18 -7 13 -6 23 1 30 9 9 9 12 0 12 -7 0 -12 5
-12 11 0 18 -30 41 -46 35 -8 -3 -12 -2 -9 4 8 13 -3 12 -35 -3z m-53 -215
c25 -27 29 -42 12 -42 -8 0 -7 -6 2 -17 10 -11 10 -14 2 -9 -9 4 -13 1 -13 -9
0 -11 -5 -15 -16 -11 -8 3 -13 2 -10 -3 3 -4 -8 -8 -24 -9 -19 0 -30 4 -30 13
0 7 -5 15 -11 17 -19 6 -13 61 9 78 28 23 52 21 79 -8z m-57 -294 c0 -5 6 -6
13 -1 19 12 37 12 61 2 29 -13 30 -43 3 -66 -21 -18 -21 -18 -7 1 15 19 14 19
-16 3 -19 -10 -35 -12 -44 -7 -9 5 -20 4 -28 -3 -11 -9 -17 -7 -27 6 -6 9 -15
14 -18 10 -4 -3 -5 8 -4 25 1 16 4 29 7 27 3 -2 12 0 18 4 17 10 42 10 42 -1z"/>
<path d="M1498 2631 c-6 -17 -6 -27 1 -29 6 -2 9 -8 5 -13 -3 -5 -2 -9 3 -8
21 4 31 -3 36 -21 3 -11 1 -22 -4 -25 -4 -3 -7 -11 -5 -18 1 -7 1 -9 -1 -4 -3
4 -9 4 -14 1 -6 -3 -16 0 -24 6 -8 7 -22 10 -30 6 -8 -3 -15 -1 -15 5 0 5 -12
7 -27 3 -16 -3 -35 -7 -44 -8 -9 -1 -24 -10 -33 -19 -10 -9 -22 -17 -27 -17
-6 0 -7 -4 -4 -10 3 -5 1 -10 -5 -10 -6 0 -9 -4 -6 -9 3 -5 -1 -14 -9 -21 -8
-7 -12 -16 -9 -21 3 -5 1 -9 -3 -9 -5 0 -9 -18 -8 -41 1 -22 -3 -43 -7 -46 -5
-2 -5 -10 0 -16 5 -7 8 -22 7 -34 -1 -12 2 -20 7 -17 4 3 8 -4 8 -15 0 -12 5
-21 11 -21 5 0 7 -4 4 -10 -3 -5 -2 -10 4 -10 5 0 13 -9 16 -21 4 -11 9 -18
13 -15 3 3 14 -2 25 -11 15 -13 18 -14 12 -3 -8 13 -7 13 8 1 9 -7 17 -10 17
-7 0 4 10 2 21 -5 13 -7 19 -7 15 -1 -4 6 2 11 11 11 36 0 58 6 73 21 17 18
50 15 50 -4 0 -9 18 -12 59 -12 33 0 57 4 55 8 -3 4 -1 8 4 8 17 0 0 48 -19
53 -21 6 -26 42 -6 50 7 3 4 6 -6 6 -11 1 -15 5 -11 13 8 13 6 186 -2 199 -3
5 3 9 13 9 14 0 15 2 4 9 -9 6 -12 20 -9 40 2 17 0 33 -6 35 -8 3 -8 5 0 5 11
1 7 60 -5 62 -3 1 -35 2 -69 3 -60 2 -64 1 -74 -23z m-14 -173 c-5 -7 10 -12
29 -9 4 0 7 -6 7 -14 0 -8 4 -15 9 -15 11 0 9 -80 -2 -97 -6 -9 -3 -11 9 -6
14 5 15 3 6 -14 -6 -11 -9 -23 -6 -26 7 -6 -17 -43 -28 -46 -4 -1 -15 -4 -23
-7 -19 -8 -48 3 -41 15 3 5 -4 7 -16 3 -13 -3 -19 -1 -15 5 4 6 0 27 -8 46 -8
20 -11 38 -6 41 4 3 7 20 6 39 -3 38 11 61 43 71 12 4 20 11 18 15 -3 4 1 8 9
8 8 0 12 -4 9 -9z"/>
<path d="M2564 2584 c-12 -13 -20 -24 -18 -27 4 -4 -29 -21 -58 -31 -26 -8
-25 -66 1 -66 18 0 19 -9 21 -117 2 -145 1 -143 12 -143 4 0 8 -7 8 -16 0 -8
5 -12 10 -9 6 3 10 2 10 -3 0 -9 24 -18 55 -22 6 -1 16 -7 24 -13 12 -10 13
-9 6 2 -6 11 -4 13 8 8 10 -3 17 -2 17 4 0 6 4 8 9 4 13 -7 62 16 55 26 -3 5
0 9 6 9 6 0 9 4 5 9 -3 5 2 16 11 25 19 19 9 40 -17 33 -11 -3 -17 -1 -13 4 3
5 1 9 -4 9 -5 0 -14 -11 -20 -25 -13 -27 -23 -30 -52 -15 -12 6 -16 17 -13 30
3 12 0 20 -8 20 -8 0 -5 6 7 16 10 8 13 12 5 8 -11 -6 -13 -1 -8 25 5 24 3 30
-6 26 -6 -4 -3 1 7 9 11 9 15 16 8 16 -6 0 -10 16 -9 39 0 22 4 39 7 39 3 0
29 0 57 1 l53 1 -3 33 c-2 30 -5 32 -42 33 -75 3 -75 3 -68 21 4 11 3 14 -6 9
-10 -6 -9 -3 0 12 24 38 -24 51 -57 16z"/>
<path d="M3441 2543 c-1 -7 -10 -13 -21 -13 -11 0 -20 -4 -20 -10 0 -5 -7 -10
-16 -10 -8 0 -13 -4 -9 -9 3 -6 -4 -9 -15 -8 -11 1 -20 7 -20 14 0 14 -10 16
-92 17 -50 1 -55 -1 -47 -16 7 -12 6 -18 -1 -18 -16 0 10 -24 35 -34 16 -6 17
-9 5 -16 -9 -6 -11 -12 -4 -22 12 -15 12 -48 1 -65 -5 -7 -4 -13 1 -13 11 0
10 -40 -2 -59 -6 -10 -5 -12 2 -7 8 5 11 0 8 -16 -3 -13 -5 -26 -5 -30 -1 -5
-10 -8 -22 -8 -14 0 -19 -5 -16 -14 3 -7 0 -19 -6 -26 -9 -10 -9 -11 1 -6 7 4
12 1 12 -8 0 -11 10 -14 40 -12 22 2 43 -1 46 -5 3 -5 13 -5 22 0 9 5 41 7 70
6 28 -2 52 -3 52 -2 0 1 4 16 9 32 8 30 8 30 -32 33 -51 3 -70 18 -57 42 6 11
5 21 -3 30 -10 10 -9 11 3 5 13 -8 13 -6 2 7 -9 12 -10 18 -2 23 8 5 7 11 -2
23 -11 13 -11 14 2 7 13 -8 13 -7 1 8 -11 13 -11 17 -1 17 8 0 10 3 7 7 -4 3
-1 13 6 21 10 13 9 14 -2 7 -10 -5 -12 -4 -7 4 4 6 21 18 37 27 30 15 30 15
19 -5 -7 -14 -7 -21 0 -21 5 0 10 -6 10 -14 0 -8 14 -21 30 -30 17 -8 30 -10
30 -5 0 6 4 8 9 5 11 -7 53 29 44 38 -3 3 -2 6 4 6 5 0 8 14 5 30 -2 17 -9 30
-14 30 -5 0 -7 4 -4 9 7 11 -42 44 -54 36 -6 -3 -10 -1 -10 5 0 6 -4 9 -9 6
-5 -4 -12 0 -14 6 -4 10 -6 10 -6 1z"/>
<path d="M581 2533 c-1 -6 -10 -10 -21 -8 -11 2 -20 -1 -20 -7 0 -6 -3 -8 -7
-5 -3 4 -12 -1 -20 -11 -9 -11 -12 -11 -7 -2 10 21 -27 -18 -56 -59 -13 -19
-17 -31 -9 -26 12 7 12 6 1 -7 -17 -22 -18 -124 -1 -145 12 -14 12 -16 -1 -9
-8 4 -7 1 4 -8 10 -8 16 -19 13 -23 -7 -10 85 -73 105 -73 8 0 20 -6 27 -12
10 -11 11 -9 5 7 -7 17 -6 18 8 7 13 -10 22 -11 37 -2 15 7 21 7 21 0 0 -7 8
-6 23 2 12 7 25 11 30 10 4 -1 7 3 7 9 0 5 3 9 8 7 4 -2 19 9 34 24 15 15 24
28 21 28 -3 0 0 7 7 15 7 8 9 15 5 15 -4 0 -2 7 5 15 6 8 9 19 5 25 -3 5 -1
10 6 10 8 0 8 4 -1 15 -8 9 -8 15 -2 15 9 0 5 32 -8 63 0 1 -3 12 -6 25 -4 12
-10 22 -14 22 -4 0 -10 9 -13 21 -3 12 -10 18 -16 14 -6 -3 -11 -2 -11 3 0 10
-48 35 -70 36 -8 0 -18 5 -22 11 -5 6 -8 4 -8 -5 0 -13 -2 -13 -9 -1 -8 12
-12 12 -24 2 -12 -9 -16 -9 -20 1 -4 9 -6 9 -6 1z m93 -104 c10 -21 11 -29 3
-29 -8 0 -7 -3 2 -9 7 -5 10 -14 7 -20 -4 -6 -3 -11 1 -11 5 0 9 -9 9 -20 0
-11 -7 -20 -16 -20 -10 0 -11 -3 -4 -8 13 -8 14 -42 2 -42 -5 0 -6 -5 -3 -10
10 -16 -21 -40 -55 -45 -24 -3 -34 2 -51 26 -11 16 -17 29 -13 29 3 0 1 7 -6
15 -10 12 -10 15 1 15 10 0 10 3 1 12 -16 16 -15 31 1 22 9 -6 9 -4 -1 8 -10
12 -10 18 -1 23 8 6 7 10 -2 16 -9 6 -10 9 -2 9 6 0 10 8 9 17 -3 21 22 49 49
55 34 7 54 -3 69 -33z"/>
<path d="M1015 2527 c-8 -4 -20 -5 -26 -1 -6 3 -15 1 -19 -5 -4 -7 -16 -13
-28 -14 -11 0 -20 -4 -19 -7 1 -3 -11 -18 -26 -32 -15 -14 -30 -39 -33 -55 -3
-15 -10 -30 -16 -32 -6 -2 -5 -7 3 -12 10 -6 10 -9 2 -9 -9 0 -10 -7 -3 -26 7
-16 7 -23 0 -19 -6 3 -10 1 -10 -4 0 -6 5 -11 11 -11 6 0 9 -7 5 -15 -3 -8 -1
-15 5 -15 6 0 8 -4 5 -8 -3 -5 4 -21 15 -38 10 -16 19 -25 19 -19 0 5 7 -1 16
-13 8 -12 22 -22 30 -22 8 0 13 -4 10 -9 -4 -5 3 -7 14 -4 12 3 20 0 20 -7 0
-6 6 -10 13 -7 6 2 22 0 35 -4 15 -6 21 -5 17 1 -6 10 1 12 44 12 14 1 31 7
39 14 7 8 18 12 23 8 5 -3 8 -2 7 3 -1 4 12 23 29 42 17 18 29 40 26 47 -3 8
-1 14 4 14 5 0 9 27 9 60 -1 33 -5 60 -9 60 -5 0 -7 7 -3 15 3 8 0 15 -6 15
-6 0 -9 3 -5 6 6 6 -10 24 -61 66 -19 16 -41 25 -57 24 -14 -2 -25 0 -25 3 0
10 -37 8 -55 -2z m55 -67 c3 -1 10 -1 15 0 6 1 7 -2 3 -6 -4 -4 -1 -12 7 -18
16 -12 23 -94 10 -116 -5 -9 -4 -11 4 -6 15 10 3 -46 -13 -56 -7 -5 -6 -8 4
-8 10 0 7 -5 -8 -16 -27 -18 -63 -26 -77 -16 -17 12 -51 56 -37 48 6 -4 12 -2
12 3 0 6 -5 11 -12 11 -6 0 -9 2 -6 6 3 3 2 21 -2 40 -7 28 -5 34 9 34 10 0
12 3 5 8 -16 11 -25 42 -12 39 6 -1 14 9 18 23 4 15 13 24 23 24 9 -1 17 2 17
6 0 7 22 7 40 0z"/>
<path d="M1844 2528 c-2 -4 -13 -5 -23 -3 -11 2 -22 -3 -25 -11 -3 -9 -10 -13
-15 -10 -5 3 -12 -1 -15 -10 -3 -8 -11 -12 -17 -8 -7 4 -9 3 -5 -4 3 -6 -2
-16 -11 -22 -16 -10 -16 -11 2 -5 16 5 18 4 8 -6 -7 -7 -13 -22 -13 -33 0 -17
2 -18 10 -6 8 12 10 10 10 -8 0 -13 4 -20 10 -17 6 3 10 3 11 -2 0 -4 2 -16 4
-25 3 -16 -7 -23 -28 -19 -5 1 -5 -4 -1 -10 3 -6 1 -15 -6 -19 -6 -4 -13 -19
-13 -34 -1 -14 -6 -26 -12 -26 -5 0 -4 -4 4 -9 8 -5 12 -18 8 -30 -3 -12 -1
-18 4 -15 5 3 12 -2 15 -10 3 -8 21 -21 40 -28 19 -6 34 -16 34 -22 0 -5 7 -1
16 10 8 10 13 14 10 8 -7 -13 41 -16 50 -3 2 4 11 6 18 3 7 -3 16 2 20 11 3 9
10 13 16 10 5 -3 10 0 11 7 0 7 4 3 9 -8 8 -19 15 -21 67 -19 32 1 61 3 64 4
3 0 6 15 6 31 0 22 -5 29 -16 28 -11 -2 -16 4 -15 19 0 12 -2 20 -5 18 -4 -2
-6 36 -7 83 0 100 -2 110 -29 135 -11 10 -14 15 -6 11 9 -5 12 -3 7 4 -4 7
-14 12 -22 12 -8 0 -14 4 -14 8 0 15 -78 30 -91 18 -9 -8 -10 -8 -5 1 5 9 -3
12 -25 10 -17 -1 -33 -5 -35 -9z m83 -70 c17 -2 25 -26 25 -70 -1 -62 -1 -62
-17 -48 -8 6 -19 9 -25 5 -5 -3 -10 -2 -10 3 0 5 -22 9 -50 8 -27 0 -50 -4
-50 -10 0 -13 -13 2 -16 18 -1 7 7 12 20 11 11 -1 27 5 34 14 8 10 11 10 6 2
-5 -9 -3 -12 5 -7 6 4 10 15 9 24 -2 11 3 16 12 14 12 -3 12 -1 3 9 -17 18 -5
38 20 32 12 -2 27 -5 34 -5z m-4 -170 c36 -14 35 -43 -1 -62 -31 -16 -71 -11
-73 8 -1 6 -2 18 -3 26 -3 34 29 46 77 28z"/>
<path d="M2913 2522 c-24 -8 -43 -18 -43 -24 0 -5 -3 -7 -7 -5 -5 2 -18 -7
-30 -20 -12 -13 -20 -23 -16 -23 3 0 -2 -11 -11 -25 -9 -14 -13 -25 -9 -25 5
0 1 -5 -7 -10 -11 -7 -12 -10 -2 -10 10 0 10 -4 -2 -15 -15 -16 -11 -49 5 -39
5 3 5 -6 -1 -20 -6 -18 -6 -26 1 -26 6 0 9 -6 6 -14 -3 -8 1 -17 9 -20 8 -3
13 -11 12 -18 -2 -7 3 -12 10 -11 6 2 12 -1 12 -5 0 -12 37 -54 45 -52 3 1 16
-1 28 -5 12 -4 28 -6 36 -5 7 1 11 -2 8 -7 -3 -4 5 -8 18 -8 13 0 21 4 18 8
-3 5 1 7 8 6 31 -6 78 14 112 46 42 40 44 48 18 77 l-20 20 -20 -33 c-12 -19
-21 -29 -21 -24 0 6 -4 4 -9 -3 -4 -7 -22 -14 -39 -14 -17 -1 -29 -4 -27 -9 3
-4 -6 -2 -20 4 -14 7 -25 15 -25 20 0 4 -8 7 -17 7 -9 0 -13 3 -10 6 3 4 2 15
-4 25 -7 14 -6 19 3 19 10 0 10 2 -1 9 -23 15 0 18 120 17 101 -1 118 1 135
18 10 11 13 15 5 11 -11 -6 -13 -3 -9 13 4 12 2 22 -2 22 -4 0 -6 10 -2 22 3
14 2 19 -6 14 -12 -7 -16 5 -13 32 1 6 -5 12 -14 12 -9 0 -14 3 -12 8 5 7 -17
33 -28 32 -22 -1 -25 1 -20 10 4 6 3 10 -2 9 -4 -1 -11 0 -15 1 -5 1 -12 4
-18 5 -5 1 -11 3 -12 5 -10 8 -80 3 -115 -8z m112 -76 c8 -8 16 -25 17 -38 3
-21 0 -23 -59 -24 -61 -1 -62 0 -60 25 4 53 64 75 102 37z"/>
<path d="M4464 2528 c-3 -4 -12 -4 -21 -1 -11 4 -14 3 -9 -5 4 -7 2 -12 -4
-12 -6 0 -18 -7 -27 -15 -14 -14 -17 -14 -28 2 -7 10 -12 20 -10 23 5 8 -112
6 -119 -1 -12 -11 -15 -49 -5 -49 6 0 7 -4 4 -10 -3 -6 1 -7 9 -4 19 7 18 10
20 -125 1 -98 0 -104 -21 -112 -16 -6 -21 -14 -18 -30 7 -33 25 -50 44 -40 9
5 40 7 68 6 29 -2 65 0 80 5 16 5 22 9 16 9 -7 1 -13 12 -13 26 0 18 -5 25
-19 25 -11 0 -23 5 -26 10 -3 6 -2 10 3 10 5 0 8 10 6 23 -1 12 -3 22 -4 22
-1 0 -3 12 -4 28 -1 18 3 27 14 27 11 0 12 2 2 8 -8 5 -10 16 -6 27 5 13 4 16
-4 11 -7 -4 -12 -3 -12 2 0 6 7 13 16 16 8 3 13 10 10 15 -7 11 38 41 62 41
28 0 41 -43 39 -125 -2 -38 1 -79 4 -90 5 -16 2 -21 -14 -22 -19 -2 -36 -18
-37 -35 0 -18 44 -47 59 -39 9 4 36 7 61 6 71 -4 87 2 87 35 0 16 -3 27 -7 25
-3 -2 -10 -1 -15 3 -14 10 -39 56 -27 48 6 -3 12 1 16 9 3 8 2 17 -3 19 -4 3
-6 32 -5 66 2 44 -1 58 -9 53 -8 -4 -7 -1 1 9 9 11 10 18 2 23 -5 3 -10 13
-10 21 0 14 -50 72 -57 67 -2 -2 -4 -3 -5 -2 -14 5 -81 3 -84 -3z"/>
<path d="M3583 2508 c3 -10 1 -18 -4 -18 -4 0 -6 -7 -3 -15 4 -9 14 -14 22
-13 11 2 17 -4 18 -17 1 -11 4 -30 8 -42 5 -15 3 -23 -4 -23 -7 0 -8 -5 -2
-17 6 -9 6 -29 2 -45 -5 -15 -6 -28 -2 -28 4 0 7 -16 8 -35 0 -19 -3 -35 -8
-35 -5 0 -5 -7 0 -17 6 -9 6 -29 2 -45 -5 -17 -5 -28 1 -28 6 0 7 -6 2 -12 -4
-7 -6 -24 -4 -38 3 -24 2 -25 -13 -5 -8 11 -16 25 -16 31 0 16 -29 28 -59 25
-34 -4 -56 -29 -57 -67 -2 -46 33 -68 110 -70 33 -1 64 2 70 7 41 32 65 57 68
70 2 7 8 17 13 21 6 5 4 8 -4 8 -11 0 -10 4 4 13 14 11 15 16 5 22 -9 6 -11 4
-5 -5 5 -8 4 -11 -3 -6 -6 4 -9 13 -6 21 4 8 11 12 18 8 7 -5 7 -2 -1 8 -8 9
-9 20 -3 29 14 22 12 34 -4 21 -11 -9 -12 -6 -8 14 2 14 9 25 16 25 6 0 5 4
-3 9 -13 9 -12 23 5 66 7 18 6 19 -11 5 -19 -15 -19 -14 -2 12 12 19 14 29 5
34 -7 5 -8 3 -3 -6 5 -8 4 -11 -3 -6 -6 4 -9 13 -6 21 4 8 11 12 18 8 7 -5 7
-2 -1 8 -7 9 -8 20 -3 29 5 8 5 21 0 29 -11 21 -10 34 2 49 13 15 19 14 -80
16 -77 2 -83 1 -79 -16z"/>
<path d="M3779 2518 c-11 -7 -11 -11 -2 -15 10 -3 10 -10 2 -25 -7 -13 -7 -18
-1 -14 6 3 17 0 25 -8 8 -8 18 -12 22 -8 5 4 4 0 0 -8 -14 -23 -15 -60 -2 -60
8 0 8 -3 2 -8 -12 -9 -20 -46 -8 -39 10 7 10 -34 -1 -51 -4 -7 -3 -12 2 -12 5
0 8 -11 7 -24 -4 -29 32 -82 60 -92 11 -3 30 -6 43 -6 12 -1 22 -5 22 -10 0
-5 7 -3 15 6 8 8 24 13 35 11 11 -2 19 -1 17 3 -1 4 5 15 13 23 14 15 16 15
33 -4 10 -12 31 -21 50 -22 17 0 38 -4 45 -8 7 -5 12 -3 12 3 0 6 4 9 9 5 5
-3 12 -1 16 5 4 6 12 7 18 3 9 -5 9 -3 1 8 -6 8 -10 22 -9 32 2 11 -3 17 -15
17 -10 0 -20 9 -23 20 -3 11 -2 18 1 16 4 -2 7 6 7 19 0 13 -3 21 -7 18 -5 -2
-8 1 -8 6 0 6 5 11 12 11 9 0 9 3 1 11 -7 7 -8 20 -3 34 4 12 5 28 0 35 -4 7
-6 18 -4 24 9 24 10 85 1 79 -5 -3 -6 3 -3 14 5 17 0 19 -74 19 l-80 0 0 -33
c0 -27 4 -33 20 -33 20 0 21 -5 19 -106 -1 -84 -4 -104 -15 -100 -8 3 -13 1
-11 -5 1 -6 -6 -16 -15 -22 -23 -15 -72 7 -64 29 3 8 2 13 -3 10 -5 -3 -9 38
-9 92 0 53 -1 113 -1 132 l-1 36 -69 1 c-38 0 -75 -4 -82 -9z"/>
</g>
</svg>
