<svg width="480" height="122" viewBox="0 0 480 122" fill="none" xmlns="http://www.w3.org/2000/svg">
<mask id="path-1-inside-1_42_52" fill="white">
<path fill-rule="evenodd" clip-rule="evenodd" d="M77.7072 0C44.0828 0 16.8248 27.258 16.8248 60.8824C16.8248 73.1768 20.4689 84.62 26.736 94.1908L0 109.799L41.4533 109.799C51.5811 117.317 64.1248 121.765 77.7073 121.765H419.118C452.742 121.765 480 94.5069 480 60.8824C480 27.258 452.742 0 419.118 0H77.7072Z"/>
</mask>
<path d="M26.736 94.1908L28.7526 97.6453L32.3891 95.5224L30.0824 91.9996L26.736 94.1908ZM0 109.799L-2.01661 106.344L-14.7861 113.799H7.36192e-07L0 109.799ZM41.4533 109.799L43.8375 106.587L42.7757 105.799H41.4533V109.799ZM20.8248 60.8824C20.8248 29.4671 46.2919 4 77.7072 4V-4C41.8736 -4 12.8248 25.0488 12.8248 60.8824H20.8248ZM30.0824 91.9996C24.2287 83.0601 20.8248 72.3749 20.8248 60.8824H12.8248C12.8248 73.9787 16.7091 86.1799 23.3896 96.3821L30.0824 91.9996ZM24.7194 90.7364L-2.01661 106.344L2.01661 113.253L28.7526 97.6453L24.7194 90.7364ZM7.36192e-07 113.799L41.4533 113.799V105.799L-7.36192e-07 105.799L7.36192e-07 113.799ZM77.7073 117.765C65.0124 117.765 53.2994 113.611 43.8375 106.587L39.069 113.01C49.8628 121.023 63.2371 125.765 77.7073 125.765V117.765ZM419.118 117.765H77.7073V125.765H419.118V117.765ZM476 60.8824C476 92.2977 450.533 117.765 419.118 117.765V125.765C454.951 125.765 484 96.716 484 60.8824H476ZM419.118 4C450.533 4 476 29.4671 476 60.8824H484C484 25.0488 454.951 -4 419.118 -4V4ZM77.7072 4H419.118V-4H77.7072V4Z" fill="#1D1D1D" mask="url(#path-1-inside-1_42_52)"/>
</svg>
