<svg width="43" height="43" viewBox="0 0 43 43" fill="none" xmlns="http://www.w3.org/2000/svg">
<path d="M19.8454 1.30971C20.2572 -0.43657 22.7428 -0.43657 23.1546 1.30971L25.9694 13.2378C26.4131 15.1186 27.8814 16.5868 29.7621 17.0306L41.6902 19.8454C43.4366 20.2572 43.4366 22.7428 41.6902 23.1546L29.7621 25.9694C27.8814 26.4131 26.4131 27.8814 25.9694 29.7621L23.1546 41.6902C22.7428 43.4366 20.2572 43.4366 19.8454 41.6902L17.0306 29.7621C16.5868 27.8814 15.1186 26.4131 13.2378 25.9694L1.30971 23.1546C-0.43657 22.7428 -0.43657 20.2572 1.30971 19.8454L13.2378 17.0306C15.1186 16.5868 16.5868 15.1186 17.0306 13.2378L19.8454 1.30971Z" fill="#F8AA27"/>
</svg>
