<svg width="36" height="40" viewBox="0 0 36 40" fill="none" xmlns="http://www.w3.org/2000/svg">
<path d="M11.9995 0.791917C12.2485 -0.263972 13.7515 -0.263972 14.0004 0.791917L15.7024 8.00425C15.9707 9.14146 16.8585 10.0292 17.9957 10.2976L25.208 11.9995C26.264 12.2485 26.264 13.7515 25.208 14.0004L17.9957 15.7024C16.8585 15.9707 15.9707 16.8585 15.7024 17.9957L14.0004 25.208C13.7515 26.264 12.2485 26.264 11.9995 25.208L10.2976 17.9957C10.0292 16.8585 9.14146 15.9707 8.00425 15.7024L0.791917 14.0004C-0.263972 13.7515 -0.263972 12.2485 0.791917 11.9995L8.00425 10.2976C9.14146 10.0292 10.0292 9.14146 10.2976 8.00425L11.9995 0.791917Z" fill="#1D1D1D"/>
<path d="M27.3843 24.4873C27.5375 23.8376 28.4624 23.8376 28.6157 24.4873L29.663 28.9257C29.8281 29.6255 30.3745 30.1718 31.0743 30.337L35.5126 31.3843C36.1625 31.5375 36.1625 32.4624 35.5126 32.6157L31.0743 33.663C30.3745 33.8281 29.8281 34.3745 29.663 35.0743L28.6157 39.5126C28.4624 40.1625 27.5375 40.1625 27.3843 39.5126L26.337 35.0743C26.1718 34.3745 25.6255 33.8281 24.9257 33.663L20.4873 32.6157C19.8376 32.4624 19.8376 31.5375 20.4873 31.3843L24.9257 30.337C25.6255 30.1718 26.1718 29.6255 26.337 28.9257L27.3843 24.4873Z" fill="#1D1D1D"/>
</svg>
